<svg width="21" height="20" viewBox="0 0 21 20" fill="none" xmlns="http://www.w3.org/2000/svg">
<path d="M8.72497 4.725L5.87497 6.45835L4.57497 4.32502C4.09997 3.54168 4.34997 2.50835 5.13331 2.03335C5.91664 1.55835 6.94997 1.80834 7.42497 2.59167L8.72497 4.725Z" stroke="white" stroke-width="1.5" stroke-linecap="round" stroke-linejoin="round"/>
<path d="M10.35 7.63333L7.7167 9.23336C6.18337 10.1667 5.7167 12.05 6.45836 13.55L8.1667 17.0334C8.7167 18.1584 10.05 18.55 11.1167 17.8917L16.475 14.6333C17.55 13.9833 17.8084 12.625 17.0667 11.6167L14.7584 8.50003C13.7584 7.15002 11.8834 6.69999 10.35 7.63333Z" stroke="white" stroke-width="1.5" stroke-linecap="round" stroke-linejoin="round"/>
<path d="M9.46386 4.24838L5.19336 6.84888L6.92703 9.69588L11.1975 7.09538L9.46386 4.24838Z" stroke="white" stroke-width="1.5" stroke-linecap="round" stroke-linejoin="round"/>
<path d="M12.425 14.0083L13.8 16.2667" stroke="white" stroke-width="1.5" stroke-linecap="round" stroke-linejoin="round"/>
<path d="M10.2917 15.3083L11.6667 17.5667" stroke="white" stroke-width="1.5" stroke-linecap="round" stroke-linejoin="round"/>
<path d="M14.5583 12.7083L15.9334 14.9666" stroke="white" stroke-width="1.5" stroke-linecap="round" stroke-linejoin="round"/>
</svg>
