<svg width="17" height="17" viewBox="0 0 17 17" fill="none" xmlns="http://www.w3.org/2000/svg">
<path d="M9.10414 10.6867V7.50008C9.10414 7.32327 9.03391 7.1537 8.90888 7.02868C8.78386 6.90365 8.61429 6.83342 8.43748 6.83342C8.26067 6.83342 8.0911 6.90365 7.96607 7.02868C7.84105 7.1537 7.77081 7.32327 7.77081 7.50008V10.6867C7.56929 10.8031 7.40173 10.9701 7.28478 11.1713C7.16782 11.3725 7.10555 11.6007 7.10414 11.8334C7.10414 12.187 7.24462 12.5262 7.49467 12.7762C7.74472 13.0263 8.08386 13.1667 8.43748 13.1667C8.7911 13.1667 9.13024 13.0263 9.38029 12.7762C9.63034 12.5262 9.77081 12.187 9.77081 11.8334C9.76941 11.6007 9.70713 11.3725 9.59018 11.1713C9.47322 10.9701 9.30566 10.8031 9.10414 10.6867ZM11.4375 9.16675V4.16675C11.4375 3.3711 11.1214 2.60804 10.5588 2.04543C9.99619 1.48282 9.23313 1.16675 8.43748 1.16675C7.64183 1.16675 6.87877 1.48282 6.31616 2.04543C5.75355 2.60804 5.43748 3.3711 5.43748 4.16675V9.16675C4.97671 9.68888 4.66023 10.3223 4.51935 11.0042C4.37848 11.6862 4.41808 12.3931 4.63425 13.0551C4.85042 13.7171 5.23566 14.3112 5.75186 14.7786C6.26807 15.246 6.89736 15.5705 7.57748 15.7201C7.86 15.7845 8.14791 15.8224 8.43748 15.8334C9.21123 15.837 9.96941 15.6161 10.6202 15.1975C11.2709 14.7789 11.7863 14.1805 12.1038 13.4749C12.4213 12.7693 12.5274 11.9868 12.4091 11.2221C12.2908 10.4574 11.9533 9.74347 11.4375 9.16675ZM10.1041 13.8801C9.57371 14.3504 8.87817 14.5907 8.17053 14.5482C7.4629 14.5057 6.80113 14.1838 6.33081 13.6534C5.86049 13.123 5.62015 12.4274 5.66266 11.7198C5.70517 11.0122 6.02704 10.3504 6.55748 9.88008C6.62047 9.81834 6.67058 9.74471 6.70491 9.66346C6.73925 9.58221 6.75711 9.49495 6.75748 9.40675V4.16675C6.75748 3.72472 6.93307 3.3008 7.24563 2.98824C7.55819 2.67568 7.98212 2.50008 8.42414 2.50008C8.86617 2.50008 9.29009 2.67568 9.60266 2.98824C9.91522 3.3008 10.0908 3.72472 10.0908 4.16675V9.46008C10.0912 9.54829 10.109 9.63554 10.1434 9.71679C10.1777 9.79804 10.2278 9.87167 10.2908 9.93341C10.5633 10.1967 10.7766 10.515 10.9164 10.8671C11.0563 11.2192 11.1195 11.5971 11.1018 11.9756C11.0841 12.3541 10.986 12.7245 10.814 13.062C10.642 13.3996 10.4 13.6967 10.1041 13.9334V13.8801Z" fill="#FFA4AC"/>
</svg>
