<svg width="21" height="20" viewBox="0 0 21 20" fill="none" xmlns="http://www.w3.org/2000/svg">
<path d="M18 4.98332C15.225 4.70832 12.4333 4.56665 9.65 4.56665C8 4.56665 6.35 4.64998 4.7 4.81665L3 4.98332" stroke="white" stroke-width="1.5" stroke-linecap="round" stroke-linejoin="round"/>
<path d="M7.58331 4.14175L7.76665 3.05008C7.89998 2.25841 7.99998 1.66675 9.40831 1.66675H11.5916C13 1.66675 13.1083 2.29175 13.2333 3.05841L13.4166 4.14175" stroke="white" stroke-width="1.5" stroke-linecap="round" stroke-linejoin="round"/>
<path d="M16.2084 7.6167L15.6667 16.0084C15.575 17.3167 15.5 18.3334 13.175 18.3334H7.82502C5.50002 18.3334 5.42502 17.3167 5.33335 16.0084L4.79169 7.6167" stroke="white" stroke-width="1.5" stroke-linecap="round" stroke-linejoin="round"/>
<path d="M9.10834 13.75H11.8833" stroke="white" stroke-width="1.5" stroke-linecap="round" stroke-linejoin="round"/>
<path d="M8.41669 10.4167H12.5834" stroke="white" stroke-width="1.5" stroke-linecap="round" stroke-linejoin="round"/>
</svg>
